HIERARCHY
ROOT Hips
{
    OFFSET 0.000000 0.000000 0.000000
    CHANNELS 6 Xposition Yposition Zposition Zrotation Xrotation Yrotation
    JOINT Spine
    {
        OFFSET -0.000000 14.517291 0.000000
        CHANNELS 3 Zrotation Xrotation Yrotation
        JOINT Spine1
        {
            OFFSET -0.000000 37.558300 0.000000
            CHANNELS 3 Zrotation Xrotation Yrotation
            JOINT Neck
            {
                OFFSET -0.000000 37.404057 3.400369
                CHANNELS 3 Zrotation Xrotation Yrotation
                JOINT Head
                {
                    OFFSET -0.000000 24.785618 -3.540803
                    CHANNELS 3 Zrotation Xrotation Yrotation
                    End Site
                    {
                        OFFSET -0.000000 35.408028 0.000000
                    }
                }
            }
            JOINT LeftShoulder
            {
                OFFSET 6.992933 33.973492 -0.192664
                CHANNELS 3 Zrotation Xrotation Yrotation
                JOINT LeftArm
                {
                    OFFSET 21.527611 0.000000 0.000000
                    CHANNELS 3 Zrotation Xrotation Yrotation
                    JOINT LeftForeArm
                    {
                        OFFSET 56.353916 0.000000 0.000000
                        CHANNELS 3 Zrotation Xrotation Yrotation
                        JOINT LeftHand
                        {
                            OFFSET 47.774071 0.000000 0.000000
                            CHANNELS 3 Zrotation Xrotation Yrotation
                            End Site
                            {
                                OFFSET 26.556021 0.000000 0.000000
                            }
                        }
                    }
                }
            }
            JOINT RightShoulder
            {
                OFFSET -7.065357 33.973492 -0.192664
                CHANNELS 3 Zrotation Xrotation Yrotation
                JOINT RightArm
                {
                    OFFSET -21.527611 0.000000 0.000000
                    CHANNELS 3 Zrotation Xrotation Yrotation
                    JOINT RightForeArm
                    {
                        OFFSET -56.353916 0.000000 0.000000
                        CHANNELS 3 Zrotation Xrotation Yrotation
                        JOINT RightHand
                        {
                            OFFSET -47.774071 0.000000 0.000000
                            CHANNELS 3 Zrotation Xrotation Yrotation
                            End Site
                            {
                                OFFSET -26.556021 0.000000 0.000000
                            }
                        }
                    }
                }
            }
        }
    }
    JOINT LeftUpLeg
    {
        OFFSET 17.704014 0.000000 0.000000
        CHANNELS 3 Zrotation Xrotation Yrotation
        JOINT LeftLeg
        {
            OFFSET -0.000000 -81.181816 0.000000
            CHANNELS 3 Zrotation Xrotation Yrotation
            JOINT LeftFoot
            {
                OFFSET -0.000000 -62.821102 0.000000
                CHANNELS 3 Zrotation Xrotation Yrotation
                JOINT LeftToeBase
                {
                    OFFSET -0.000000 -11.507608 26.556021
                    CHANNELS 3 Zrotation Xrotation Yrotation
                    End Site
                    {
                        OFFSET -0.000000 0.000000 7.081605
                    }
                }
            }
        }
    }
    JOINT RightUpLeg
    {
        OFFSET -17.704014 0.000000 0.000000
        CHANNELS 3 Zrotation Xrotation Yrotation
        JOINT RightLeg
        {
            OFFSET -0.000000 -81.181816 0.000000
            CHANNELS 3 Zrotation Xrotation Yrotation
            JOINT RightFoot
            {
                OFFSET -0.000000 -62.821102 0.000000
                CHANNELS 3 Zrotation Xrotation Yrotation
                JOINT RightToeBase
                {
                    OFFSET -0.000000 -11.507608 26.556021
                    CHANNELS 3 Zrotation Xrotation Yrotation
                    End Site
                    {
                        OFFSET -0.000000 0.000000 7.081605
                    }
                }
            }
        }
    }
}
MOTION
Frames:    6
Frame Time:    0.008333
-14.098498    160.490677    -85.493805    -3.904827    23.887960    33.046227    6.706215    9.455598    -0.991345    -3.645513    1.273268    -0.108357    16.948111    2.996048    -1.167210    -9.381724    -19.139914    -6.150218    6.173123    9.747779    -19.229399    -27.497736    25.154121    -56.900455    0.864252    -13.110693    -95.536819    12.549017    -13.348460    -10.847372    -4.505945    -0.576962    0.135295    27.913336    -22.280151    59.612278    -22.618891    -17.930019    64.576019    -2.223902    -4.398803    36.430676    5.454443    -21.026464    -2.754461    -6.944025    13.118857    -18.438276    -9.021073    -11.633445    38.657188    0.000000    0.000000    0.000000    -27.774950    -48.451332    -20.295658    16.372784    35.355858    -13.314479    1.407911    0.719552    -18.549149    0.000000    0.000000    0.000000    
-14.031139    160.513870    -85.559235    -3.890490    23.766388    33.009727    6.685130    9.440408    -0.971902    -3.650009    1.250755    -0.103314    16.946636    2.984703    -1.170610    -9.359318    -19.036869    -6.140363    6.163338    9.793664    -19.224310    -27.515642    25.118597    -56.894051    0.808842    -13.043733    -95.540985    12.797845    -13.356965    -10.781462    -4.509675    -0.504263    0.108663    27.931194    -22.273563    59.670948    -22.644863    -17.972198    64.549408    -2.228299    -4.436487    36.516056    5.474550    -20.936539    -2.764603    -6.940688    13.149123    -18.432415    -8.989016    -11.661390    38.669231    0.000000    0.000000    0.000000    -27.578676    -48.360363    -20.269804    16.111483    35.328503    -13.127541    1.489819    0.795402    -18.510286    0.000000    0.000000    0.000000    
-13.958892    160.531647    -85.630394    -3.880745    23.640196    32.988453    6.685628    9.397962    -0.971701    -3.679345    1.289344    -0.102446    16.927074    2.902750    -1.139024    -9.326196    -18.925507    -6.098794    6.164829    9.749658    -19.231424    -27.527617    25.164751    -56.835697    0.853824    -13.097556    -95.552078    12.670294    -13.349502    -10.772805    -4.514634    -0.525393    0.100509    27.978125    -22.259089    59.705593    -22.642395    -17.985342    64.584999    -2.254430    -4.448333    36.417866    5.495621    -20.854448    -2.782711    -6.940790    13.197509    -18.424629    -8.940171    -11.694365    38.670940    0.000000    0.000000    0.000000    -27.452339    -48.253223    -20.112564    16.079933    35.259495    -13.139500    1.546790    0.865772    -18.540146    0.000000    0.000000    0.000000    
-13.888735    160.553741    -85.703079    -3.867716    23.507271    32.959972    6.657038    9.375319    -0.976352    -3.667867    1.276432    -0.105969    16.959126    2.950835    -1.129839    -9.394142    -18.932749    -6.107182    6.146525    9.757272    -19.200647    -27.501699    25.196125    -56.850033    0.833187    -13.110406    -95.555862    12.795430    -13.394033    -10.754098    -4.529142    -0.394571    0.030282    28.033497    -22.261864    59.883045    -22.713215    -18.026588    64.499672    -2.179310    -4.446751    36.544163    5.519139    -20.759947    -2.807314    -6.946459    13.231042    -18.384502    -8.876725    -11.707576    38.651192    0.000000    0.000000    0.000000    -27.319096    -48.137913    -19.959614    16.036917    35.184875    -13.127183    1.608630    0.953659    -18.550035    0.000000    0.000000    0.000000    
-13.821634    160.576920    -85.784988    -3.864073    23.374594    32.933910    6.634486    9.337685    -0.982185    -3.634843    1.284921    -0.109108    16.806423    2.914547    -1.118553    -9.221503    -18.850708    -6.023077    6.093122    9.732586    -19.200600    -27.557053    25.151184    -56.747524    0.870798    -13.068997    -95.573296    12.674440    -13.299608    -10.743819    -4.595409    -0.493375    0.120223    27.991499    -22.169392    59.754444    -22.713923    -18.105209    64.566353    -2.203041    -4.515944    36.463821    5.550972    -20.677044    -2.828142    -6.948425    13.273756    -18.381786    -8.824321    -11.731647    38.661045    0.000000    0.000000    0.000000    -27.185543    -48.029114    -19.771015    16.028688    35.096874    -13.187263    1.697649    1.047385    -18.566092    0.000000    0.000000    0.000000    
-13.805998    160.600418    -85.865784    -3.871424    23.244959    32.851894    6.539093    9.342319    -0.940094    -3.589630    1.221325    -0.100243    16.890471    2.931549    -1.083837    -9.331543    -18.810200    -6.025192    6.107379    9.765907    -19.173660    -27.549438    25.107656    -56.752838    0.825337    -13.021922    -95.572762    12.706250    -13.308476    -10.781157    -4.544931    -0.479738    0.143085    28.012106    -22.219606    59.793694    -22.671230    -18.022558    64.593185    -2.194292    -4.447826    36.493919    5.642084    -20.597221    -2.752225    -6.970774    13.314825    -18.365973    -8.782710    -11.756456    38.640297    0.000000    0.000000    0.000000    -26.945110    -47.975151    -19.488302    15.971324    34.999454    -13.220850    1.764308    1.178897    -18.576387    0.000000    0.000000    0.000000    
